:SAMPLES-PER-SECOND 30
:FULLY-SPECIFIED
:DEGREES
18
root  -5.37887 39.2146 12.0146 -178.534 7.69597 177.797
RightUpLeg  -11.7172 -11.3211 -12.2469
RightLeg  13.0977 -17.457 -4.48989
RightFoot  3.26248 -1.60251 12.6344
RightToes  -5.8209e-011 0 -3.6325e-017
Spine  8.63605 -0.38633 -6.69687
Spine1  26.6581 -2.58959 3.57614
HEad  -18.9561 10.397 -4.41798
LeftShoulder1  2.19965 -6.19629 -15.9211
LeftArm  8.07436 2.46716 -54.9982
LeftForeArm  50.1688 -77.0907 -51.5231
LeftHand  -0.698706 -0.199137 14.5901
RightShoulder  0.956879 1.00274 14.4342
RightArm  3.44585 -14.405 55.7939
RightForeArm  139.641 76.3116 134.565
RightHand  -0.628202 4.52925 -7.62598
LeftUpLeg  -10.8707 -3.15284 5.6192
LeftLeg  17.6248 6.06671 2.53336
LeftFoot  -7.38846 0.353425 -8.94063
LeftToes  6.82088e-011 -2.45093e-011 5.71991e-013
19
root  -5.3875 39.2228 11.9868 -178.552 8.20706 177.769
RightUpLeg  -11.7597 -11.1788 -12.2166
RightLeg  12.9217 -17.1284 -4.41232
RightFoot  3.34066 -1.60459 12.587
RightToes  -5.8209e-011 0 -3.6325e-017
Spine  8.59518 -0.344621 -6.77879
Spine1  26.5939 -2.52188 3.51157
HEad  -19.0729 10.7387 -4.48572
LeftShoulder1  2.22809 -6.35369 -15.8412
LeftArm  8.02336 2.31247 -54.5045
LeftForeArm  50.8849 -77.1528 -51.7006
LeftHand  -0.724621 -0.578945 14.196
RightShoulder  0.963929 1.03251 14.4512
RightArm  3.55193 -14.6657 55.8772
RightForeArm  139.801 76.3418 134.496
RightHand  -0.621642 4.5324 -7.54725
LeftUpLeg  -10.6576 -2.76493 5.56476
LeftLeg  17.5322 6.19375 2.57903
LeftFoot  -7.42581 0.35061 -8.94481
LeftToes  6.82088e-011 -2.45093e-011 5.71991e-013
20
root  -5.40107 39.2311 11.9554 -178.547 8.729 177.745
RightUpLeg  -11.8229 -11.1427 -12.2052
RightLeg  12.7432 -16.7042 -4.25983
RightFoot  3.40868 -1.59587 12.4656
RightToes  -5.8209e-011 0 -3.6325e-017
Spine  8.48603 -0.311968 -6.76772
Spine1  26.5714 -2.39781 3.32656
HEad  -19.1388 10.9955 -4.54064
LeftShoulder1  2.2306 -6.42455 -15.6924
LeftArm  8.13705 2.26302 -54.2327
LeftForeArm  51.4857 -77.1855 -51.6808
LeftHand  -0.77957 -1.13886 13.991
RightShoulder  0.983133 1.10663 14.5328
RightArm  3.51606 -14.849 55.9266
RightForeArm  139.704 76.4171 134.212
RightHand  -0.613841 4.53599 -7.45399
LeftUpLeg  -10.4712 -2.40882 5.50812
LeftLeg  17.4598 6.35568 2.63585
LeftFoot  -7.47397 0.347783 -8.96359
LeftToes  6.82088e-011 -2.45093e-011 5.71991e-013
21
root  -5.41583 39.233 11.9276 -178.542 9.09497 177.768
RightUpLeg  -11.8443 -11.1116 -12.1693
RightLeg  12.6019 -16.4132 -4.14313
RightFoot  3.45596 -1.59818 12.4456
RightToes  -5.8209e-011 0 -3.6325e-017
Spine  8.36679 -0.303136 -6.79185
Spine1  26.6426 -2.37461 3.30383
HEad  -19.2212 11.1446 -4.59018
LeftShoulder1  2.20008 -6.32571 -15.6
LeftArm  8.52247 2.13694 -54.136
LeftForeArm  51.2983 -77.0945 -50.9919
LeftHand  -0.846562 -1.68327 14.0464
RightShoulder  0.992335 1.15035 14.5227
RightArm  3.44119 -14.9046 56.0459
RightForeArm  139.545 76.4653 134.007
RightHand  -0.618809 4.60835 -7.46166
LeftUpLeg  -10.3749 -2.22426 5.50733
LeftLeg  17.5076 6.51161 2.69098
LeftFoot  -7.56339 0.342264 -8.99256
LeftToes  6.82088e-011 -2.45093e-011 5.71991e-013
22
root  -5.43479 39.2268 11.906 -178.557 9.25797 177.859
RightUpLeg  -11.7874 -11.0086 -12.0912
RightLeg  12.4956 -16.3526 -4.119
RightFoot  3.49646 -1.61936 12.5746
RightToes  -5.8209e-011 0 -3.6325e-017
Spine  8.34531 -0.331903 -6.83178
Spine1  26.7021 -2.48553 3.4785
HEad  -19.3293 11.2858 -4.66888
LeftShoulder1  2.17271 -6.21894 -15.5608
LeftArm  9.074 2.07416 -54.1299
LeftForeArm  50.7435 -76.9392 -49.9884
LeftHand  -0.899832 -2.02051 14.2609
RightShoulder  0.984514 1.1344 14.4284
RightArm  3.35828 -14.913 56.148
RightForeArm  139.715 76.4233 134.193
RightHand  -0.632469 4.6972 -7.55767
LeftUpLeg  -10.378 -2.19243 5.57823
LeftLeg  17.7161 6.61383 2.73288
LeftFoot  -7.7095 0.332221 -9.01066
LeftToes  6.82088e-011 -2.45093e-011 5.71991e-013
23
root  -5.46279 39.2172 11.8854 -178.562 9.35063 177.973
RightUpLeg  -11.7296 -10.9141 -12.0146
RightLeg  12.4203 -16.3411 -4.11261
RightFoot  3.53352 -1.6413 12.7115
RightToes  -5.8209e-011 0 -3.6325e-017
Spine  8.38765 -0.387617 -6.79225
Spine1  26.6575 -2.61012 3.63139
HEad  -19.3815 11.4382 -4.7517
LeftShoulder1  2.17903 -6.26298 -15.5216
LeftArm  9.65896 2.29135 -54.1715
LeftForeArm  50.644 -76.839 -49.2558
LeftHand  -0.966965 -2.31251 14.74
RightShoulder  0.982068 1.13505 14.3626
RightArm  3.16986 -14.9746 56.1419
RightForeArm  140.157 76.3229 134.641
RightHand  -0.657498 4.73275 -7.81884
LeftUpLeg  -10.4448 -2.17064 5.65999
LeftLeg  18.0022 6.66999 2.76796
LeftFoot  -7.8835 0.31934 -9.00377
LeftToes  6.82088e-011 -2.45093e-011 5.71991e-013
24
root  -5.49646 39.2106 11.8622 -178.575 9.55174 178.034
RightUpLeg  -11.721 -10.89 -11.9952
RightLeg  12.3734 -16.1883 -4.06461
RightFoot  3.56389 -1.6448 12.7135
RightToes  -5.8209e-011 0 -3.6325e-017
Spine  8.42135 -0.414333 -6.72473
Spine1  26.5778 -2.64075 3.65122
HEad  -19.3484 11.516 -4.78636
LeftShoulder1  2.20807 -6.38025 -15.5534
LeftArm  10.2934 2.7277 -54.1986
LeftForeArm  51.1828 -76.8469 -49.0693
LeftHand  -1.0912 -2.73417 15.7545
RightShoulder  0.992178 1.18895 14.3311
RightArm  2.7897 -15.0358 56.1254
RightForeArm  140.527 76.2378 135.013
RightHand  -0.704113 4.76728 -8.32375
LeftUpLeg  -10.4526 -2.02535 5.67155
LeftLeg  18.2191 6.71688 2.80198
LeftFoot  -8.03324 0.307264 -8.9632
LeftToes  6.82088e-011 -2.45093e-011 5.71991e-013
25
root  -5.52881 39.2082 11.8393 -178.669 9.89142 178.026
RightUpLeg  -11.691 -10.8543 -12.0253
RightLeg  12.3267 -15.9279 -4.02424
RightFoot  3.60279 -1.63577 12.6142
RightToes  -5.8209e-011 0 -3.6325e-017
Spine  8.47353 -0.378013 -6.73968
Spine1  26.5855 -2.59615 3.62946
HEad  -19.3269 11.4923 -4.7954
LeftShoulder1  2.23548 -6.42822 -15.7372
LeftArm  10.9976 3.16406 -54.1561
LeftForeArm  51.9633 -76.9371 -49.3986
LeftHand  -1.24608 -3.13179 17.1314
RightShoulder  0.994792 1.21134 14.2809
RightArm  2.28205 -14.9525 56.1891
RightForeArm  140.703 76.1933 135.202
RightHand  -0.764307 4.89205 -8.90591
LeftUpLeg  -10.2961 -1.74249 5.60666
LeftLeg  18.3145 6.75735 2.82628
LeftFoot  -8.14172 0.297455 -8.89363
LeftToes  6.82088e-011 -2.45093e-011 5.71991e-013
26
root  -5.56147 39.2055 11.8195 -178.829 10.2422 178.01
RightUpLeg  -11.5985 -10.7441 -12.0505
RightLeg  12.2647 -15.6792 -4.02919
RightFoot  3.66121 -1.63606 12.57
RightToes  -5.8209e-011 0 -3.6325e-017
Spine  8.56023 -0.333177 -6.75529
Spine1  26.6933 -2.53829 3.58479
HEad  -19.403 11.4414 -4.82989
LeftShoulder1  2.25449 -6.42473 -15.9547
LeftArm  11.6866 3.50751 -54.1335
LeftForeArm  52.5195 -77.043 -49.9695
LeftHand  -1.37447 -3.31545 18.4639
RightShoulder  0.979631 1.1444 14.2575
RightArm  1.78032 -14.7218 56.2306
RightForeArm  140.604 76.1559 135.306
RightHand  -0.823382 5.06251 -9.42208
LeftUpLeg  -10.065 -1.43471 5.53488
LeftLeg  18.3905 6.77933 2.84267
LeftFoot  -8.24528 0.288339 -8.83175
LeftToes  6.82088e-011 -2.45093e-011 5.71991e-013
27
root  -5.60161 39.1973 11.8005 -178.935 10.5129 178.039
RightUpLeg  -11.5424 -10.6344 -12.0487
RightLeg  12.2334 -15.4625 -4.03737
RightFoot  3.71301 -1.65254 12.6527
RightToes  -5.8209e-011 0 -3.6325e-017
Spine  8.58482 -0.349671 -6.59068
Spine1  26.8306 -2.46387 3.39305
HEad  -19.5212 11.4241 -4.86028
LeftShoulder1  2.26364 -6.45647 -15.9762
LeftArm  12.3778 3.77324 -54.3153
LeftForeArm  52.503 -77.1038 -50.4729
LeftHand  -1.49626 -3.34886 19.9689
RightShoulder  0.964382 1.06017 14.3195
RightArm  1.29498 -14.4909 56.1597
RightForeArm  139.887 76.0838 135.39
RightHand  -0.879152 5.10052 -10.0035
LeftUpLeg  -9.95887 -1.21061 5.50166
LeftLeg  18.5736 6.80726 2.87429
LeftFoot  -8.38891 0.277541 -8.81009
LeftToes  6.82088e-011 -2.45093e-011 5.71991e-013
